<svg width="80" height="80" viewBox="0 0 80 80" fill="none" xmlns="http://www.w3.org/2000/svg"><path d="M70.6 16.2h-7.93v-2.27a3.41 3.41 0 0 0-3.4-3.4h-7.94v-3.4A1.13 1.13 0 0 0 50.2 6H7.13A1.13 1.13 0 0 0 6 7.13V70.6a1.13 1.13 0 0 0 1.13 1.13h34.2a3.41 3.41 0 0 0 3.2 2.27h6.8a3.41 3.41 0 0 0 3.4-3.4V51.33h1.14A1.13 1.13 0 0 0 57 50.2v-4.53a1.13 1.13 0 0 0-1.13-1.14h-4.54V40H70.6a3.41 3.41 0 0 0 3.4-3.4v-17a3.41 3.41 0 0 0-3.4-3.4Zm-7.93 9.07V23h4.53v10.2H51.33v-4.53h7.94a3.41 3.41 0 0 0 3.4-3.4Zm-3.4-12.47a1.13 1.13 0 0 1 1.13 1.13v11.34a1.13 1.13 0 0 1-1.13 1.13h-40.8a1.13 1.13 0 0 1-1.14-1.13V13.93a1.13 1.13 0 0 1 1.14-1.13h40.8Zm-24.94 17a3.41 3.41 0 0 0-3.4 3.4v7.93a1.13 1.13 0 1 1-2.26 0v-3.4a3.4 3.4 0 1 0-6.8 0V50.2a1.13 1.13 0 0 1-2.27 0V28.67H40v9.06a1.13 1.13 0 1 1-2.27 0V33.2a3.41 3.41 0 0 0-3.4-3.4Zm6.8 39.67H8.27V8.27h40.8v2.26h-30.6a3.41 3.41 0 0 0-3.4 3.4v2.27h-1.14a2.27 2.27 0 0 0-2.26 2.27v2.26A2.27 2.27 0 0 0 13.93 23h1.14v2.27a3.41 3.41 0 0 0 2.26 3.2V50.2a3.4 3.4 0 0 0 6.8 0V37.73a1.13 1.13 0 0 1 2.27 0v3.4a3.4 3.4 0 1 0 6.8 0V33.2a1.13 1.13 0 0 1 2.27 0v4.53a3.4 3.4 0 1 0 6.8 0v-9.06h6.8v4.53h-1.14a3.41 3.41 0 0 0-3.4 3.4v7.93H40a1.13 1.13 0 0 0-1.13 1.14v4.53A1.13 1.13 0 0 0 40 51.33h1.13v18.14Zm-26.06-51v2.26h-1.14v-2.26h1.14Zm37.4 52.13a1.13 1.13 0 0 1-1.14 1.13h-6.8a1.13 1.13 0 0 1-1.13-1.13V51.33h9.07V70.6Zm2.26-23.8v2.27h-13.6V46.8h13.6Zm17-10.2a1.13 1.13 0 0 1-1.13 1.13H51.33A2.27 2.27 0 0 0 49.07 40v4.53H46.8V36.6a1.13 1.13 0 0 1 1.13-1.13H67.2a2.27 2.27 0 0 0 2.27-2.27V23a2.27 2.27 0 0 0-2.27-2.27h-4.53v-2.26h7.93a1.13 1.13 0 0 1 1.13 1.13v17Z" fill="#FFFFFF"/><path d="M20.73 55.87a3.4 3.4 0 1 0 0 6.8 3.4 3.4 0 0 0 0-6.8Zm0 4.53a1.13 1.13 0 1 1 0-2.27 1.13 1.13 0 0 1 0 2.27ZM29.8 46.8a3.4 3.4 0 1 0 0 6.8 3.4 3.4 0 0 0 0-6.8Zm0 4.53a1.13 1.13 0 1 1 0-2.26 1.13 1.13 0 0 1 0 2.26ZM19.6 16.2a1.13 1.13 0 0 0 1.13 1.13h30.6a1.13 1.13 0 1 0 0-2.26h-30.6a1.13 1.13 0 0 0-1.13 1.13ZM55.87 17.33H57a1.13 1.13 0 1 0 0-2.26h-1.13a1.13 1.13 0 0 0 0 2.26Z" fill="#FFFFFF"/></svg>
