<svg width="80" height="80" viewBox="0 0 80 80" fill="none" xmlns="http://www.w3.org/2000/svg">
  <path d="M61.24 10.35v.76l-18.2-5.75a7.7 7.7 0 0 0-6.47.85L29.03 11a7.66 7.66 0 0 0-3.47 5.3H8.77a1.2 1.2 0 0 0-1.2 1.2v26.23a1.2 1.2 0 0 0 1.2 1.2h50.09a1.2 1.2 0 0 0 1.19-1.2V31.01c.16-.12.32-.25.47-.39h.72v2.39a1.2 1.2 0 0 0 1.2 1.2h13.11v-2.4H63.63V11.55h11.92V9.16H62.43a1.2 1.2 0 0 0-1.19 1.2ZM42.44 36.6c.48 0 .96-.06 1.42-.16a10.7 10.7 0 0 0-2.82 6.12H35V18.7h.9a3.87 3.87 0 0 1 2.73 6.6l-.61.61a6.25 6.25 0 0 0 4.42 10.68Zm8.07-3.51c-.88.1-1.75.3-2.58.61l2.58-2.57v1.96Zm0 2.4v7.07h-7.07a8.36 8.36 0 0 1 7.07-7.07Zm-17.89 7.07h-4.77V18.7h4.77v23.85Zm-7.15 0h-6.04a10.75 10.75 0 0 0-9.47-9.47v-4.9a10.75 10.75 0 0 0 9.47-9.48h6.04v23.85ZM17.03 18.7a8.36 8.36 0 0 1-7.07 7.07V18.7h7.07ZM9.96 35.48a8.36 8.36 0 0 1 7.07 7.07H9.96v-7.07Zm47.7 7.07H52.9V32.23a8 8 0 0 0 4.77 0v10.32Zm2.39-14.31c-.32 0-.62.13-.85.35a5.56 5.56 0 0 1-7.85 0 1.2 1.2 0 0 0-1.69 0l-4.48 4.48a3.87 3.87 0 1 1-5.47-5.47l.62-.61A6.25 6.25 0 0 0 35.9 16.3h-7.93a5.3 5.3 0 0 1 2.34-3.3l7.53-4.8a5.31 5.31 0 0 1 4.46-.58l18.93 5.98v14.63h-1.2ZM11.15 74.75v-1.2h3.58a1.2 1.2 0 0 0 1.2-1.19V71.1l.1.08a25.54 25.54 0 0 0 32.91-2.72l8.97-8.97a5.4 5.4 0 0 0-6.89-8.28 4.55 4.55 0 0 0-7.6-1.03 4.65 4.65 0 0 0-6.9 2.86l-1.25 5.01h-6.93l-.84-.84a9.63 9.63 0 0 0-11.57-1.56v-1.18a1.2 1.2 0 0 0-1.2-1.19h-3.58a1.2 1.2 0 0 0-1.19-1.2H4v2.4h4.77v19.07H4v2.39h5.96a1.2 1.2 0 0 0 1.2-1.2Zm35.21-23.73a2.17 2.17 0 0 1 2.7 2.02l-8.32 8.32a4.76 4.76 0 0 0-.6-1.21L45.04 52a2.16 2.16 0 0 1 1.33-.99Zm-7.53 2.6a2.27 2.27 0 0 1 3.31-1.43l-3.82 6.36c-.2-.1-.43-.2-.65-.27l1.16-4.66ZM20.7 56.77a7.2 7.2 0 0 1 5.11 2.13l1.2 1.19c.22.22.52.35.84.35h8.35a2.38 2.38 0 1 1 0 4.77H25.46v2.38H36.2a4.77 4.77 0 0 0 4.2-2.51l11.55-11.55a3.02 3.02 0 0 1 4.27 4.27l-8.96 8.97a23.16 23.16 0 0 1-29.84 2.47l-1.5-1.07v-9.6a7.19 7.19 0 0 1 4.78-1.8Zm-7.16-1.1v15.5h-2.38v-15.5h2.38Z" fill="#CA2C37"/>
</svg>
