<svg width="80" height="80" viewBox="0 0 80 80" fill="none" xmlns="http://www.w3.org/2000/svg"><path d="M70.56 38.79c-4.7 0-9.08-2.34-11.69-6.26l-.93-1.4-.94 1.4a14.02 14.02 0 0 1-11.7 6.26h-4.26v18.06c0 4.37 1.97 8.47 5.25 11.22H23.02v-4.5h14.64V43.29H14.01v9.01H7.25V7.25h49.56v20.28h2.25V5H5v48.9l16.43 16.42h28.32L57.94 75l9.51-5.44a14.67 14.67 0 0 0 7.38-12.71V38.79h-4.27Zm-49.8 27.69L8.86 54.56h11.92v11.92Zm-4.5-14.18v-6.75h19.15V61.3H23.02v-9h-6.76Zm56.32 4.55c0 4.44-2.4 8.56-6.24 10.76l-8.4 4.8-8.4-4.8a12.42 12.42 0 0 1-6.25-10.76v-15.8h2.02c4.93 0 9.55-2.22 12.63-6a16.27 16.27 0 0 0 12.62 6h2.02v15.8Z" fill="#CA2C37"/><path d="M68.07 50.05v6.8a7.9 7.9 0 0 1-3.97 6.85l1.12 1.95c3.15-1.8 5.1-5.17 5.1-8.8v-6.8h-2.25ZM11.76 9.5v6.76H52.3V9.51H11.76Zm38.3 4.51H14v-2.25h36.04V14ZM67.28 43.62 52.3 58.6l-3.7-3.71-1.6 1.59 5.3 5.3 16.57-16.56-1.6-1.6ZM33.16 47.8H18.52v2.25h14.64V47.8ZM33.16 52.3h-7.89v2.26h7.89V52.3ZM33.16 56.8h-7.89v2.26h7.89v-2.25ZM47.8 20.77H11.76v2.25H47.8v-2.25ZM47.8 25.27H11.76v2.26H47.8v-2.26ZM47.8 29.78H11.76v2.25H47.8v-2.25ZM33.16 34.28h-21.4v2.26h21.4v-2.26ZM33.16 38.79h-21.4v2.25h21.4V38.8ZM52.3 20.77h-2.25v2.25h2.25v-2.25ZM52.3 25.27h-2.25v2.26h2.25v-2.26ZM52.3 29.78h-2.25v2.25h2.25v-2.25ZM37.66 34.28h-2.25v2.26h2.25v-2.26ZM37.66 38.79h-2.25v2.25h2.25V38.8Z" fill="#CA2C37"/></svg>
