<svg width="80" height="80" viewBox="0 0 80 80" fill="none" xmlns="http://www.w3.org/2000/svg"><path d="M74.86 15.54H69.8v-1.26c0-2.09-1.69-3.78-3.78-3.78h-7.56v.03c-1.14-.01-2.25.37-3.14 1.08L40.3 23.74a3.77 3.77 0 0 0-3.25-1.9H16.87a3.78 3.78 0 0 0-3.78 3.79v8.82h-6.3A3.78 3.78 0 0 0 3 38.23v17.65c0 1.6 1.02 3.03 2.53 3.56v.23a8.82 8.82 0 0 0 17.64 0h7.56a8.82 8.82 0 1 0 10.09-8.73V40.86l17.74-18.2a3.78 3.78 0 0 0 3.69 2.97h2.52v7.56c0 1.4 1.13 2.52 2.52 2.52v10.16c-3.62.4-6.3 2.43-6.3 4.97 0 2.54 2.68 4.58 6.3 4.97v10.16a1.26 1.26 0 0 0 2.52 0v-2.6c3.62-.39 6.3-2.43 6.3-4.97 0-2.54-2.68-4.58-6.3-4.97v-5.18c3.62-.4 6.3-2.43 6.3-4.97 0-2.54-2.68-4.58-6.3-4.97v-2.6c1.4 0 2.53-1.13 2.53-2.52v-7.56h2.52c2.09 0 3.78-1.7 3.78-3.78v-2.53c0-2.08-1.7-3.78-3.78-3.78ZM63.5 50.84c0-1 1.56-2.1 3.78-2.42v4.84c-2.22-.31-3.78-1.41-3.78-2.42ZM73.6 58.4c0 1.01-1.56 2.11-3.79 2.43v-4.85c2.23.32 3.79 1.42 3.79 2.42Zm0-15.12c0 1-1.56 2.1-3.79 2.42v-4.85c2.23.32 3.79 1.42 3.79 2.43Zm-6.3-29v1.26h-3.8a5 5 0 0 0-.67-2.52h3.2c.7 0 1.26.57 1.26 1.26Zm-29 11.35v17.65H23.17c-.7 0-1.26-.57-1.26-1.26V24.37h15.13c.7 0 1.26.56 1.26 1.26ZM5.52 55.88V38.23c0-.7.57-1.26 1.26-1.26h6.3v13.97A8.84 8.84 0 0 0 6 56.84c-.3-.23-.46-.58-.47-.96Zm8.83 10.09a6.3 6.3 0 1 1 0-12.6 6.3 6.3 0 0 1 0 12.6Zm8.45-8.83a8.84 8.84 0 0 0-7.2-6.2V25.63c0-.7.57-1.26 1.27-1.26h2.52v17.65c0 2.08 1.7 3.78 3.78 3.78H38.3v5.14c-3.4.5-6.2 2.92-7.19 6.2H22.8Zm23.06 2.52a6.3 6.3 0 1 1-12.6 0 6.3 6.3 0 0 1 12.6 0Zm-5.04-33.11 16.1-12.98a2.51 2.51 0 0 1 4.05 2.21 3.77 3.77 0 0 0-2.48 3.34L40.82 37.24v-10.7Zm29 6.64h-2.53v-7.56h2.52v7.56Zm6.3-11.34c0 .7-.57 1.26-1.26 1.26H62.25c-.7 0-1.26-.57-1.26-1.26v-2.53c0-.7.56-1.26 1.26-1.26h12.6c.7 0 1.27.57 1.27 1.26v2.53Z" fill="#FFFFFF"/><path d="M25.7 30.67c.33 0 .65-.13.88-.37l1.26-1.26a1.26 1.26 0 0 0-1.78-1.78l-1.26 1.26a1.26 1.26 0 0 0 .9 2.15ZM25.7 36.97c.33 0 .65-.13.88-.37l7.57-7.56a1.26 1.26 0 0 0-1.79-1.78l-7.56 7.56a1.26 1.26 0 0 0 .9 2.15ZM14.35 55.88a3.78 3.78 0 1 0 0 7.57 3.78 3.78 0 0 0 0-7.57Zm0 5.05a1.26 1.26 0 1 1 0-2.53 1.26 1.26 0 0 1 0 2.53ZM35.78 59.66a3.78 3.78 0 1 0 7.56 0 3.78 3.78 0 0 0-7.56 0Zm5.04 0a1.26 1.26 0 1 1-2.52 0 1.26 1.26 0 0 1 2.52 0ZM24.43 48.32h-1.26a1.26 1.26 0 1 0 0 2.52h1.26a1.26 1.26 0 0 0 0-2.52Z" fill="#FFFFFF"/></svg>
