<svg width="80" height="80" viewBox="0 0 80 80" fill="none" xmlns="http://www.w3.org/2000/svg"><path d="M72.99 17.8H70V12.5c0-3.57-2.9-6.48-6.46-6.48L40.98 6c-1.28 0-2.49.5-3.4 1.4L3.9 41.1A6.43 6.43 0 0 0 2 45.66c0 1.73.67 3.35 1.9 4.58L25.76 72.1a6.45 6.45 0 0 0 9.15 0L56.1 50.9a1.48 1.48 0 1 0-2.1-2.1L32.82 70a3.5 3.5 0 0 1-4.95 0L6 48.16a3.48 3.48 0 0 1 0-4.96L39.68 9.51c.35-.35.81-.54 1.3-.54l22.57.01a3.5 3.5 0 0 1 3.5 3.5l-.01 12.45h-6.69c-.58 0-1.1-.23-1.47-.61a5.48 5.48 0 1 0-3.24.34 5.06 5.06 0 0 0 4.71 3.24h6.69v7.12c0 .5-.2.95-.54 1.3l-4.08 4.08a1.49 1.49 0 1 0 2.1 2.1l4.08-4.08c.9-.9 1.4-2.11 1.4-3.4V27.9H73a5.05 5.05 0 0 0 0-10.1Zm-18.05-.28a2.5 2.5 0 0 1 3.93.5 5.07 5.07 0 0 0-3.38 3.45 2.49 2.49 0 0 1-.55-3.95ZM73 24.93H70v-4.16H73a2.08 2.08 0 0 1 0 4.16Z" fill="#FFFFFF"/><path d="M25.97 43.47a1.48 1.48 0 0 0 1.83 1.03l15.25-4.24a1.49 1.49 0 0 0-.8-2.86L27 41.64a1.49 1.49 0 0 0-1.03 1.83ZM32.68 45.43a4.35 4.35 0 0 0 0 6.2 4.37 4.37 0 0 0 6.2 0 4.38 4.38 0 0 0-6.2-6.2Zm4.1 4.1a1.41 1.41 0 1 1-2-2 1.41 1.41 0 0 1 2 2ZM39.61 36.59a4.38 4.38 0 1 0-6.2-6.2 4.38 4.38 0 0 0 6.2 6.2Zm-4.1-4.1a1.4 1.4 0 0 1 2 0 1.41 1.41 0 1 1-2 0Z" fill="#FFFFFF"/><path d="M16.77 40.4a1.49 1.49 0 0 0-2.1 0l-4.22 4.22a1.48 1.48 0 0 0 0 2.1l18.83 18.83a1.48 1.48 0 0 0 2.1 0L59.54 37.4c.58-.58.58-1.52 0-2.1L40.7 16.46a1.49 1.49 0 0 0-2.1 0L23.07 32a1.49 1.49 0 0 0 2.1 2.1l14.49-14.49 16.73 16.74L30.33 62.4 13.6 45.67l3.17-3.17c.58-.58.58-1.52 0-2.1ZM59.27 44.16a1.5 1.5 0 0 0-1.49 1.49 1.5 1.5 0 0 0 1.49 1.48 1.5 1.5 0 0 0 1.48-1.48 1.5 1.5 0 0 0-1.48-1.49Z" fill="#FFFFFF"/><path d="M20.97 38.3a1.49 1.49 0 1 0-2.1-2.1 1.49 1.49 0 0 0 2.1 2.1Z" fill="#FFFFFF"/></svg>
