<svg width="18" height="11" viewBox="0 0 18 11" fill="none" xmlns="http://www.w3.org/2000/svg"><path d="M10.76 8.06c.64-.2 1.45 1.36 2.32 1.96.66.45 1.15.36 1.15.36l2.32-.04s1.21-.07.64-1.03c-.05-.08-.34-.72-1.73-2.02-1.45-1.36-1.25-1.14.5-3.5 1.06-1.43 1.49-2.3 1.36-2.68-.13-.36-.91-.27-.91-.27L13.8.86c-.26 0-.47.08-.57.34 0 0-.42 1.11-.96 2.06-1.17 1.99-1.63 2.1-1.82 1.97-.44-.29-.33-1.16-.33-1.77 0-1.94.29-2.74-.56-2.95A4.4 4.4 0 0 0 8.34.39C7.4.37 6.62.39 6.17.6c-.3.15-.52.47-.38.5.17.01.56.1.77.38.26.37.26 1.2.26 1.2s.15 2.27-.36 2.55c-.36.2-.84-.2-1.87-2.01-.53-.93-.93-1.95-.93-1.95s-.08-.19-.22-.3c-.16-.12-.4-.15-.4-.15L.57.84s-.38.01-.51.18c-.12.14-.01.44-.01.44s1.94 4.59 4.13 6.9c2.02 2.12 4.3 1.98 4.3 1.98h1.04s.31-.03.47-.2c.15-.17.15-.47.15-.47s-.02-1.4.62-1.61Z" fill="#fff"/></svg>